<mxfile host="app.diagrams.net" modified="2024-03-27T11:01:42.099Z" agent="Mozilla/5.0 (Windows NT 10.0; Win64; x64) AppleWebKit/537.36 (KHTML, like Gecko) Chrome/123.0.0.0 Safari/537.36" version="24.1.0" etag="SBRV4PO5EeOh1e_t454S" type="github">
  <diagram name="Page-1" id="1d2X0_wd4NPsI6ZP3d5k">
    <mxGraphModel>
      <root>
        <mxCell id="0" />
        <mxCell id="1" parent="0" />
      </root>
    </mxGraphModel>
  </diagram>
</mxfile>
